<mxfile host="app.diagrams.net" modified="2024-02-17T10:52:46.613Z" agent="Mozilla/5.0 (Windows NT 10.0; Win64; x64) AppleWebKit/537.36 (KHTML, like Gecko) Chrome/121.0.0.0 Safari/537.36" etag="4XGZNefXkbTpiCcWMDch" version="23.1.5" type="device">
  <diagram name="Pagina-1" id="h1aCvs1FiVhqj2LHunR-">
    <mxGraphModel dx="1562" dy="1999" grid="1" gridSize="10" guides="1" tooltips="1" connect="1" arrows="1" fold="1" page="1" pageScale="1" pageWidth="827" pageHeight="1169" math="0" shadow="0">
      <root>
        <mxCell id="0" />
        <mxCell id="1" parent="0" />
        <mxCell id="cvTAHTmqVTscjAahvX1_-1" value="" style="rounded=0;whiteSpace=wrap;html=1;fillColor=#d5e8d4;strokeColor=#82b366;" parent="1" vertex="1">
          <mxGeometry x="120" y="-40" width="560" height="370" as="geometry" />
        </mxCell>
        <mxCell id="cvTAHTmqVTscjAahvX1_-2" value="" style="rounded=1;whiteSpace=wrap;html=1;" parent="1" vertex="1">
          <mxGeometry x="302" y="75" width="196" height="140" as="geometry" />
        </mxCell>
        <mxCell id="cvTAHTmqVTscjAahvX1_-3" value="&lt;b&gt;LOGIN&lt;/b&gt;" style="text;html=1;strokeColor=none;fillColor=none;align=center;verticalAlign=middle;whiteSpace=wrap;rounded=0;" parent="1" vertex="1">
          <mxGeometry x="370" y="80" width="60" height="30" as="geometry" />
        </mxCell>
        <mxCell id="cvTAHTmqVTscjAahvX1_-4" value="Username" style="rounded=1;whiteSpace=wrap;html=1;" parent="1" vertex="1">
          <mxGeometry x="340" y="120" width="120" height="20" as="geometry" />
        </mxCell>
        <mxCell id="cvTAHTmqVTscjAahvX1_-5" value="Password" style="rounded=1;whiteSpace=wrap;html=1;" parent="1" vertex="1">
          <mxGeometry x="340" y="150" width="120" height="20" as="geometry" />
        </mxCell>
        <mxCell id="cvTAHTmqVTscjAahvX1_-7" value="Accedi" style="rounded=1;whiteSpace=wrap;html=1;" parent="1" vertex="1">
          <mxGeometry x="330" y="180" width="50" height="20" as="geometry" />
        </mxCell>
        <mxCell id="cvTAHTmqVTscjAahvX1_-8" value="Registrati" style="rounded=1;whiteSpace=wrap;html=1;" parent="1" vertex="1">
          <mxGeometry x="410" y="180" width="60" height="20" as="geometry" />
        </mxCell>
        <mxCell id="cvTAHTmqVTscjAahvX1_-16" value="&lt;font size=&quot;1&quot; style=&quot;&quot;&gt;&lt;b style=&quot;font-size: 16px;&quot;&gt;DESKTOP&amp;nbsp;&lt;/b&gt;&lt;/font&gt;" style="text;html=1;strokeColor=none;fillColor=none;align=center;verticalAlign=middle;whiteSpace=wrap;rounded=0;" parent="1" vertex="1">
          <mxGeometry x="370" y="-70" width="60" height="30" as="geometry" />
        </mxCell>
        <mxCell id="cvTAHTmqVTscjAahvX1_-19" value="" style="rounded=0;whiteSpace=wrap;html=1;fillColor=#d5e8d4;strokeColor=#82b366;" parent="1" vertex="1">
          <mxGeometry x="120" y="350" width="560" height="370" as="geometry" />
        </mxCell>
        <mxCell id="cvTAHTmqVTscjAahvX1_-21" value="&lt;font style=&quot;font-size: 13px;&quot;&gt;Titolo&lt;/font&gt;" style="text;html=1;strokeColor=none;fillColor=none;align=center;verticalAlign=middle;whiteSpace=wrap;rounded=0;" parent="1" vertex="1">
          <mxGeometry x="370" y="360" width="60" height="30" as="geometry" />
        </mxCell>
        <mxCell id="cvTAHTmqVTscjAahvX1_-22" value="&lt;font style=&quot;font-size: 13px;&quot;&gt;Logout&lt;/font&gt;" style="text;html=1;strokeColor=none;fillColor=none;align=center;verticalAlign=middle;whiteSpace=wrap;rounded=0;" parent="1" vertex="1">
          <mxGeometry x="420" y="360" width="60" height="30" as="geometry" />
        </mxCell>
        <mxCell id="cvTAHTmqVTscjAahvX1_-23" value="NOTA 1" style="rounded=1;whiteSpace=wrap;html=1;" parent="1" vertex="1">
          <mxGeometry x="190" y="480" width="123" height="90" as="geometry" />
        </mxCell>
        <mxCell id="cvTAHTmqVTscjAahvX1_-24" value="NOTA 2" style="rounded=1;whiteSpace=wrap;html=1;" parent="1" vertex="1">
          <mxGeometry x="345" y="480" width="123" height="90" as="geometry" />
        </mxCell>
        <mxCell id="cvTAHTmqVTscjAahvX1_-25" value="&lt;font style=&quot;font-size: 20px;&quot;&gt;+&lt;/font&gt;" style="rounded=1;whiteSpace=wrap;html=1;" parent="1" vertex="1">
          <mxGeometry x="503" y="480" width="123" height="90" as="geometry" />
        </mxCell>
        <mxCell id="rBAJp0QyZ967NIFbTD-K-1" value="Titolo" style="rounded=1;whiteSpace=wrap;html=1;" vertex="1" parent="1">
          <mxGeometry x="232" y="430" width="103" height="20" as="geometry" />
        </mxCell>
        <mxCell id="rBAJp0QyZ967NIFbTD-K-2" value="Priorità" style="rounded=1;whiteSpace=wrap;html=1;" vertex="1" parent="1">
          <mxGeometry x="360.5" y="430" width="103" height="20" as="geometry" />
        </mxCell>
        <mxCell id="rBAJp0QyZ967NIFbTD-K-3" value="Data" style="rounded=1;whiteSpace=wrap;html=1;" vertex="1" parent="1">
          <mxGeometry x="492" y="430" width="103" height="20" as="geometry" />
        </mxCell>
        <mxCell id="rBAJp0QyZ967NIFbTD-K-4" value="Filtra per" style="text;html=1;align=center;verticalAlign=middle;whiteSpace=wrap;rounded=0;" vertex="1" parent="1">
          <mxGeometry x="384" y="400" width="60" height="30" as="geometry" />
        </mxCell>
        <mxCell id="rBAJp0QyZ967NIFbTD-K-5" value="Testo" style="rounded=1;whiteSpace=wrap;html=1;" vertex="1" parent="1">
          <mxGeometry x="254" y="760" width="319.5" height="240" as="geometry" />
        </mxCell>
        <mxCell id="rBAJp0QyZ967NIFbTD-K-6" value="" style="rounded=1;whiteSpace=wrap;html=1;fillColor=#dae8fc;strokeColor=#6c8ebf;" vertex="1" parent="1">
          <mxGeometry x="500" y="780" width="50" height="20" as="geometry" />
        </mxCell>
        <mxCell id="rBAJp0QyZ967NIFbTD-K-8" value="" style="ellipse;whiteSpace=wrap;html=1;aspect=fixed;" vertex="1" parent="1">
          <mxGeometry x="530" y="780" width="20" height="20" as="geometry" />
        </mxCell>
        <mxCell id="rBAJp0QyZ967NIFbTD-K-10" value="Titolo&amp;nbsp; &amp;nbsp; &amp;nbsp; &amp;nbsp; &amp;nbsp; &amp;nbsp; &amp;nbsp; &amp;nbsp; &amp;nbsp; &amp;nbsp; &amp;nbsp; &amp;nbsp; &amp;nbsp; &amp;nbsp; &amp;nbsp; &amp;nbsp; &amp;nbsp; &amp;nbsp; &amp;nbsp; &amp;nbsp; &amp;nbsp; &amp;nbsp;Priorità" style="text;html=1;align=center;verticalAlign=middle;whiteSpace=wrap;rounded=0;" vertex="1" parent="1">
          <mxGeometry x="263" y="775" width="240" height="30" as="geometry" />
        </mxCell>
        <mxCell id="rBAJp0QyZ967NIFbTD-K-11" value="DataCreazione/DataModifica" style="text;html=1;align=center;verticalAlign=middle;whiteSpace=wrap;rounded=0;" vertex="1" parent="1">
          <mxGeometry x="390" y="970" width="60" height="30" as="geometry" />
        </mxCell>
      </root>
    </mxGraphModel>
  </diagram>
</mxfile>
